<svg height="385" version="1.1" width="335" xmlns="http://www.w3.org/2000/svg" xmlns:xlink="http://www.w3.org/1999/xlink" style="overflow: hidden; position: relative;" viewBox="0 0 335 385"><desc>Created with Raphaël 2.2.0</desc><defs></defs><rect x="0" y="0" width="10" height="10" rx="0" ry="0" fill="#000000" stroke="#000" style="opacity: 0;" class="backgroundLayer" opacity="0.0"></rect><rect x="0" y="0" width="10" height="10" rx="0" ry="0" fill="#000000" stroke="#000" style="opacity: 0;" class="selectionPlateLayer" opacity="0.0"></rect><circle cx="-40.000131274767355" cy="-207.84601545452784" r="15.6" fill="none" stroke="#00cc00" style="display: none;" stroke-width="1.2" transform="matrix(1,0,0,1,198,330)"></circle><rect x="0" y="0" width="10" height="10" rx="0" ry="0" fill="#000000" stroke="#000" style="opacity: 0;" class="highlightingLayer" opacity="0.0"></rect><rect x="0" y="0" width="10" height="10" rx="0" ry="0" fill="#000000" stroke="#000" style="opacity: 0;" class="warningsLayer" opacity="0.0"></rect><text style="text-anchor: middle; font-family: Arial; font-size: 13px; font-variant: normal; font-weight: normal; font-stretch: normal; line-height: normal; font-size-adjust: none; font-kerning: auto; font-optical-sizing: auto; font-language-override: normal; font-feature-settings: normal; font-variation-settings: normal;" x="100.00032818691841" y="34.640113683948535" text-anchor="middle" font-family="&quot;Arial&quot;" font-size="13px" stroke="none" fill="#000000" font="30px Arial" font-style="" transform="matrix(1,0,0,1,198,330)"><tspan dy="4.599999758014697">C</tspan></text><text style="text-anchor: middle; font: 13px Arial;" x="100.00032818691841" y="34.640113683948535" text-anchor="middle" font-family="&quot;Arial&quot;" font-size="13px" stroke="none" fill="#000000" font="30px Arial" transform="matrix(1,0,0,1,209.9167,330)"><tspan dy="4.599999758014697">H</tspan></text><text style="text-anchor: middle; font: 13px Arial;" x="100.00032818691841" y="34.640113683948535" text-anchor="middle" font-family="&quot;Arial&quot;" font-size="13px" stroke="none" fill="#000000" font="30px Arial" transform="matrix(1,0,0,1,220.7583,333.0667)"><tspan dy="4.599999758014697">3</tspan></text><text style="text-anchor: middle; font-family: Arial; font-size: 13px; font-variant: normal; font-weight: normal; font-stretch: normal; line-height: normal; font-size-adjust: none; font-kerning: auto; font-optical-sizing: auto; font-language-override: normal; font-feature-settings: normal; font-variation-settings: normal;" x="80.00026254953471" y="0" text-anchor="middle" font-family="&quot;Arial&quot;" font-size="13px" stroke="none" fill="#ff0d0d" font="30px Arial" font-style="" transform="matrix(1,0,0,1,198,330)"><tspan dy="4.599999904632568">O</tspan></text><text style="text-anchor: middle; font-family: Arial; font-size: 13px; font-variant: normal; font-weight: normal; font-stretch: normal; line-height: normal; font-size-adjust: none; font-kerning: auto; font-optical-sizing: auto; font-language-override: normal; font-feature-settings: normal; font-variation-settings: normal;" x="-40.000131274767355" y="-69.2828940433154" text-anchor="middle" font-family="&quot;Arial&quot;" font-size="13px" stroke="none" fill="#ff0d0d" font="30px Arial" font-style="" transform="matrix(1,0,0,1,198,330)"><tspan dy="4.599999995838658">O</tspan></text><text style="text-anchor: middle; font-family: Arial; font-size: 13px; font-variant: normal; font-weight: normal; font-stretch: normal; line-height: normal; font-size-adjust: none; font-kerning: auto; font-optical-sizing: auto; font-language-override: normal; font-feature-settings: normal; font-variation-settings: normal;" x="20.000065637383678" y="-103.92300772726392" text-anchor="middle" font-family="&quot;Arial&quot;" font-size="13px" stroke="none" fill="#ff0d0d" font="30px Arial" font-style="" transform="matrix(1,0,0,1,198,330)"><tspan dy="4.599992513062006">O</tspan></text><text style="text-anchor: middle; font-family: Arial; font-size: 13px; font-variant: normal; font-weight: normal; font-stretch: normal; line-height: normal; font-size-adjust: none; font-kerning: auto; font-optical-sizing: auto; font-language-override: normal; font-feature-settings: normal; font-variation-settings: normal;" x="-20.000065637383678" y="-311.7690231817918" text-anchor="middle" font-family="&quot;Arial&quot;" font-size="13px" stroke="none" fill="#ff0d0d" font="30px Arial" font-style="" transform="matrix(1,0,0,1,198,330)"><tspan dy="4.599985359315383">O</tspan></text><text style="text-anchor: middle; font-family: Arial; font-size: 13px; font-variant: normal; font-weight: normal; font-stretch: normal; line-height: normal; font-size-adjust: none; font-kerning: auto; font-optical-sizing: auto; font-language-override: normal; font-feature-settings: normal; font-variation-settings: normal;" x="20.000065637383678" y="-311.7690231817918" text-anchor="middle" font-family="&quot;Arial&quot;" font-size="13px" stroke="none" fill="#000000" font="30px Arial" font-style="" transform="matrix(1,0,0,1,198,330)"><tspan dy="4.599985359315383">C</tspan></text><text style="text-anchor: middle; font: 13px Arial;" x="20.000065637383678" y="-311.7690231817918" text-anchor="middle" font-family="&quot;Arial&quot;" font-size="13px" stroke="none" fill="#000000" font="30px Arial" transform="matrix(1,0,0,1,209.9167,330)"><tspan dy="4.599985359315383">H</tspan></text><text style="text-anchor: middle; font: 13px Arial;" x="20.000065637383678" y="-311.7690231817918" text-anchor="middle" font-family="&quot;Arial&quot;" font-size="13px" stroke="none" fill="#000000" font="30px Arial" transform="matrix(1,0,0,1,220.7583,333.0667)"><tspan dy="4.599985359315383">3</tspan></text><text style="text-anchor: middle; font-family: Arial; font-size: 13px; font-variant: normal; font-weight: normal; font-stretch: normal; line-height: normal; font-size-adjust: none; font-kerning: auto; font-optical-sizing: auto; font-language-override: normal; font-feature-settings: normal; font-variation-settings: normal;" x="-100.00032818691841" y="-311.7690231817918" text-anchor="middle" font-family="&quot;Arial&quot;" font-size="13px" stroke="none" fill="#ff0d0d" font="30px Arial" font-style="" transform="matrix(1,0,0,1,198,330)"><tspan dy="4.599985359315383">O</tspan></text><text style="text-anchor: middle; font-family: Arial; font-size: 13px; font-variant: normal; font-weight: normal; font-stretch: normal; line-height: normal; font-size-adjust: none; font-kerning: auto; font-optical-sizing: auto; font-language-override: normal; font-feature-settings: normal; font-variation-settings: normal;" x="-140.00045946168575" y="-311.7690231817918" text-anchor="middle" font-family="&quot;Arial&quot;" font-size="13px" stroke="none" fill="#000000" font="30px Arial" font-style="" transform="matrix(1,0,0,1,198,330)"><tspan dy="4.599985359315383">C</tspan></text><text style="text-anchor: middle; font: 13px Arial;" x="-140.00045946168575" y="-311.7690231817918" text-anchor="middle" font-family="&quot;Arial&quot;" font-size="13px" stroke="none" fill="#000000" font="30px Arial" transform="matrix(1,0,0,1,176.3167,330)"><tspan dy="4.599985359315383">H</tspan></text><text style="text-anchor: middle; font: 13px Arial;" x="-140.00045946168575" y="-311.7690231817918" text-anchor="middle" font-family="&quot;Arial&quot;" font-size="13px" stroke="none" fill="#000000" font="30px Arial" transform="matrix(1,0,0,1,187.1583,333.0667)"><tspan dy="4.599985359315383">3</tspan></text><text style="text-anchor: middle; font-family: Arial; font-size: 13px; font-variant: normal; font-weight: normal; font-stretch: normal; line-height: normal; font-size-adjust: none; font-kerning: auto; font-optical-sizing: auto; font-language-override: normal; font-feature-settings: normal; font-variation-settings: normal;" x="-140.00045946168575" y="-242.48879581389468" text-anchor="middle" font-family="&quot;Arial&quot;" font-size="13px" stroke="none" fill="#ff0d0d" font="30px Arial" font-style="" transform="matrix(1,0,0,1,198,330)"><tspan dy="4.600000324868745">O</tspan></text><text style="text-anchor: middle; font-family: Arial; font-size: 13px; font-variant: normal; font-weight: normal; font-stretch: normal; line-height: normal; font-size-adjust: none; font-kerning: auto; font-optical-sizing: auto; font-language-override: normal; font-feature-settings: normal; font-variation-settings: normal;" x="-160.00052509906942" y="-207.84601545452784" text-anchor="middle" font-family="&quot;Arial&quot;" font-size="13px" stroke="none" fill="#000000" font="30px Arial" font-style="" transform="matrix(1,0,0,1,198,330)"><tspan dy="4.5999889361887085">C</tspan></text><text style="text-anchor: middle; font: 13px Arial;" x="-160.00052509906942" y="-207.84601545452784" text-anchor="middle" font-family="&quot;Arial&quot;" font-size="13px" stroke="none" fill="#000000" font="30px Arial" transform="matrix(1,0,0,1,176.3167,330)"><tspan dy="4.5999889361887085">H</tspan></text><text style="text-anchor: middle; font: 13px Arial;" x="-160.00052509906942" y="-207.84601545452784" text-anchor="middle" font-family="&quot;Arial&quot;" font-size="13px" stroke="none" fill="#000000" font="30px Arial" transform="matrix(1,0,0,1,187.1583,333.0667)"><tspan dy="4.5999889361887085">3</tspan></text><path style="stroke-linecap: round; stroke-linejoin: round;" fill="none" stroke="#000000" d="M93.57380273,23.50937159L86.42678837,11.13074272" stroke-width="2" stroke-linecap="round" stroke-linejoin="round" transform="matrix(1,0,0,1,198,330)"></path><path style="stroke-linecap: round; stroke-linejoin: round;" fill="none" stroke="#000000" d="M70.17526245,0L40.00013127,0" stroke-width="2" stroke-linecap="round" stroke-linejoin="round" transform="matrix(1,0,0,1,198,330)"></path><path style="stroke-linecap: round; stroke-linejoin: round;" fill="none" stroke="#000000" d="M33.07187723,0L16.53601483,28.64011368M40.00013127,0L20.00006564,34.64011368" stroke-width="2" stroke-linecap="round" stroke-linejoin="round" transform="matrix(1,0,0,1,198,330)"></path><path style="stroke-linecap: round; stroke-linejoin: round;" fill="none" stroke="#000000" d="M20.00006564,34.64011368L-20.00006564,34.64011368" stroke-width="2" stroke-linecap="round" stroke-linejoin="round" transform="matrix(1,0,0,1,198,330)"></path><path style="stroke-linecap: round; stroke-linejoin: round;" fill="none" stroke="#000000" d="M-16.53601483,28.64011368L-33.07187723,0M-20.00006564,34.64011368L-40.00013127,0" stroke-width="2" stroke-linecap="round" stroke-linejoin="round" transform="matrix(1,0,0,1,198,330)"></path><path style="stroke-linecap: round; stroke-linejoin: round;" fill="none" stroke="#000000" d="M-40.00013127,0L-20.00006564,-34.64011368" stroke-width="2" stroke-linecap="round" stroke-linejoin="round" transform="matrix(1,0,0,1,198,330)"></path><path style="stroke-linecap: round; stroke-linejoin: round;" fill="none" stroke="#000000" d="M-20.00006564,-34.64011368L-33.57405813,-58.15207855" stroke-width="2" stroke-linecap="round" stroke-linejoin="round" transform="matrix(1,0,0,1,198,330)"></path><path style="stroke-linecap: round; stroke-linejoin: round;" fill="none" stroke="#000000" d="M-33.57360898,-80.41363065L-20.00006564,-103.92300773" stroke-width="2" stroke-linecap="round" stroke-linejoin="round" transform="matrix(1,0,0,1,198,330)"></path><path style="stroke-linecap: round; stroke-linejoin: round;" fill="none" stroke="#000000" d="M-20.00006564,-100.92300773L10.17506504,-100.92300773M-20.00006564,-106.92300773L10.17506504,-106.92300773" stroke-width="2" stroke-linecap="round" stroke-linejoin="round" transform="matrix(1,0,0,1,198,330)"></path><path style="stroke-linecap: round; stroke-linejoin: round;" fill="none" stroke="#000000" d="M-20.00006564,-103.92300773L-40.00013127,-138.56578809" stroke-width="2" stroke-linecap="round" stroke-linejoin="round" transform="matrix(1,0,0,1,198,330)"></path><path style="stroke-linecap: round; stroke-linejoin: round;" fill="none" stroke="#000000" d="M-33.0719439,-138.56567262L-14.80395132,-170.20583577M-40.00013127,-138.56578809L-20.00006564,-173.20590177" stroke-width="2" stroke-linecap="round" stroke-linejoin="round" transform="matrix(1,0,0,1,198,330)"></path><path style="stroke-linecap: round; stroke-linejoin: round;" fill="none" stroke="#000000" d="M-20.00006564,-173.20590177L-40.00013127,-207.84601545" stroke-width="2" stroke-linecap="round" stroke-linejoin="round" transform="matrix(1,0,0,1,198,330)"></path><path style="stroke-linecap: round; stroke-linejoin: round;" fill="none" stroke="#000000" d="M-40.00013127,-207.84601545L-20.00006564,-242.48879581M-43.46431541,-213.84601545L-26.92825301,-242.48868035" stroke-width="2" stroke-linecap="round" stroke-linejoin="round" transform="matrix(1,0,0,1,198,330)"></path><path style="stroke-linecap: round; stroke-linejoin: round;" fill="none" stroke="#000000" d="M-20.00006564,-242.48879581L-40.00013127,-277.1289095" stroke-width="2" stroke-linecap="round" stroke-linejoin="round" transform="matrix(1,0,0,1,198,330)"></path><path style="stroke-linecap: round; stroke-linejoin: round;" fill="none" stroke="#000000" d="M-40.00013127,-277.1289095L-26.42658581,-300.63829024" stroke-width="2" stroke-linecap="round" stroke-linejoin="round" transform="matrix(1,0,0,1,198,330)"></path><path style="stroke-linecap: round; stroke-linejoin: round;" fill="none" stroke="#000000" d="M-10.17506599,-311.76902318L10.54173183,-311.76902318" stroke-width="2" stroke-linecap="round" stroke-linejoin="round" transform="matrix(1,0,0,1,198,330)"></path><path style="stroke-linecap: round; stroke-linejoin: round;" fill="none" stroke="#000000" d="M-40.00013127,-277.1289095L-80.00026255,-277.1289095M-43.46418208,-271.1289095L-76.53621174,-271.1289095" stroke-width="2" stroke-linecap="round" stroke-linejoin="round" transform="matrix(1,0,0,1,198,330)"></path><path style="stroke-linecap: round; stroke-linejoin: round;" fill="none" stroke="#000000" d="M-80.00026255,-277.1289095L-93.57380801,-300.63829024" stroke-width="2" stroke-linecap="round" stroke-linejoin="round" transform="matrix(1,0,0,1,198,330)"></path><path style="stroke-linecap: round; stroke-linejoin: round;" fill="none" stroke="#000000" d="M-109.82532501,-311.76902318L-130.54211903,-311.76902318" stroke-width="2" stroke-linecap="round" stroke-linejoin="round" transform="matrix(1,0,0,1,198,330)"></path><path style="stroke-linecap: round; stroke-linejoin: round;" fill="none" stroke="#000000" d="M-80.00026255,-277.1289095L-100.00032819,-242.48879581" stroke-width="2" stroke-linecap="round" stroke-linejoin="round" transform="matrix(1,0,0,1,198,330)"></path><path style="stroke-linecap: round; stroke-linejoin: round;" fill="none" stroke="#000000" d="M-100.00032819,-242.48879581L-130.17545509,-242.48879581" stroke-width="2" stroke-linecap="round" stroke-linejoin="round" transform="matrix(1,0,0,1,198,330)"></path><path style="stroke-linecap: round; stroke-linejoin: round;" fill="none" stroke="#000000" d="M-146.4265236,-231.35799591L-153.57445659,-218.97682293" stroke-width="2" stroke-linecap="round" stroke-linejoin="round" transform="matrix(1,0,0,1,198,330)"></path><path style="stroke-linecap: round; stroke-linejoin: round;" fill="none" stroke="#000000" d="M-100.00032819,-242.48879581L-80.00026255,-207.84601545M-93.07214081,-242.48868035L-76.53607841,-213.84601545" stroke-width="2" stroke-linecap="round" stroke-linejoin="round" transform="matrix(1,0,0,1,198,330)"></path><path style="stroke-linecap: round; stroke-linejoin: round;" fill="none" stroke="#000000" d="M-16.53601483,-28.64011368L16.53601483,-28.64011368M-20.00006564,-34.64011368L20.00006564,-34.64011368" stroke-width="2" stroke-linecap="round" stroke-linejoin="round" transform="matrix(1,0,0,1,198,330)"></path><path style="stroke-linecap: round; stroke-linejoin: round;" fill="none" stroke="#000000" d="M20.00006564,-34.64011368L40.00013127,0" stroke-width="2" stroke-linecap="round" stroke-linejoin="round" transform="matrix(1,0,0,1,198,330)"></path><path style="stroke-linecap: round; stroke-linejoin: round;" fill="none" stroke="#000000" d="M-80.00026255,-207.84601545L-40.00013127,-207.84601545" stroke-width="2" stroke-linecap="round" stroke-linejoin="round" transform="matrix(1,0,0,1,198,330)"></path><rect x="0" y="0" width="10" height="10" rx="0" ry="0" fill="#000000" stroke="#000" style="opacity: 0;" class="dataLayer" opacity="0.0"></rect><rect x="0" y="0" width="10" height="10" rx="0" ry="0" fill="#000000" stroke="#000" style="opacity: 0;" class="indicesLayer" opacity="0.0"></rect></svg>
